<svg xmlns="http://www.w3.org/2000/svg" width="350" height="350" x="0px" y="0px" viewBox="-95 279.5 350 350"><path fill="#fff" d="M80 279.5c-96.415 0-175 78.585-175 175s78.585 175 175 175 175-77.925 175-175-78.585-175-175-175zm163.774 175c0 90.472-73.302 163.774-163.774 163.774S-83.774 544.972-83.774 454.5-10.472 290.726 80 290.726 243.774 364.028 243.774 454.5z"/><g fill="#fff"><path d="M163.852 381.01c2.641 2.642 5.943 6.604 7.924 9.246l35.66-22.453c-1.98-1.981-4.622-5.943-6.603-7.924l-22.453 14.528-1.32 1.32 1.32-1.98 9.906-19.812-7.265-7.264-19.81 9.906-1.982 1.32 1.32-1.32 14.529-22.453c-2.641-1.981-5.283-3.962-8.585-6.604l-22.453 35c2.642 1.981 6.604 5.283 9.246 7.264l21.132-11.226 1.32-.66-1.32 1.32zM83.286 336.105l9.905-21.792.66-1.982v1.982l1.321 29.056c3.302 0 6.604.66 10.566 1.32l-1.32-42.263c-4.623-.66-9.906-.66-14.529-1.321l-9.245 23.774-.66 1.98-.66-1.98-9.246-23.774c-4.623 0-9.906.66-14.528 1.32l-1.321 42.265c3.302-.66 7.264-1.32 10.566-1.32l1.32-29.057v-1.982l.661 1.982 9.906 21.792zM5.361 370.445c5.283-5.944 8.585-12.548 3.302-19.151-3.302-3.302-7.925-3.963-12.547-2.642h-.66v-.66c.66-1.981 1.32-7.264-3.302-10.566-1.982-1.981-5.284-2.642-7.925-1.981-5.283.66-9.245 3.962-20.472 16.509-3.302 3.962-7.924 9.245-11.226 13.208l30.377 28.396c10.566-11.227 14.529-15.189 22.453-23.113zm-39.623-7.265c5.944-7.264 12.548-13.867 15.19-16.509.66-.66 1.98-1.981 3.301-1.981 1.981-.66 3.962.66 4.623 2.641.66 1.982-.66 3.963-1.982 5.283-3.301 3.302-15.188 15.85-15.188 15.85zm11.887 11.227s11.227-11.887 15.189-15.85c1.32-1.32 2.641-2.64 3.302-2.64 1.32-.661 2.641-.661 3.962 0 1.32.66 1.981 1.98 1.32 3.962-.66 1.98-1.98 3.301-2.64 4.622-1.321 1.981-15.19 15.85-15.19 16.51z"/></g><path fill="#0166b1" d="M80 350.82V454.5H-23.68c0-56.792 46.227-103.68 103.68-103.68zM183.68 454.5c0 57.453-46.227 103.68-103.68 103.68V454.5Z"/><path fill="#fff" d="M183.68 454.5H80V350.82c57.453 0 103.68 46.888 103.68 103.68zM80 558.18c-57.453 0-103.68-46.227-103.68-103.68H80z"/></svg>