<svg xmlns="http://www.w3.org/2000/svg" xml:space="preserve" width="251px" height="57.4px" x="0px" y="0px" viewBox="0 0 251 57.4"><g fill="#FFF"><path d="M27.289 42.472c-3.648 0-7.574 2.25-7.574 7.203 0 6.93 5.777 7.469 7.547 7.469 1.777 0 7.559-.539 7.559-7.469.011-4.953-3.899-7.203-7.532-7.203m0 12.059c-2.027 0-4.406-1.258-4.406-4.84 0-2.73 1.766-4.559 4.379-4.559 2.625 0 4.406 1.828 4.406 4.559 0 3.582-2.363 4.84-4.379 4.84zM40.656 56.883h3.008V45.25h4.742v-2.5H35.914v2.5h4.742v11.633M57.25 42.472c-3.648 0-7.563 2.25-7.563 7.203 0 6.93 5.781 7.469 7.547 7.469 1.781 0 7.574-.539 7.574-7.469-.015-4.953-3.925-7.203-7.558-7.203m0 12.059c-2.031 0-4.41-1.258-4.41-4.84 0-3.156 2.203-4.559 4.379-4.559 2.641 0 4.406 1.828 4.406 4.559 0 3.582-2.348 4.84-4.375 4.84zM76.277 51.547c2-.48 3.344-2.148 3.344-4.164 0-3.844-3.152-4.648-5.797-4.648h-6.566v14.133h3.008v-4.645h2.625l3.371 4.645h3.75l-4.055-5.246.32-.075m-3.062-1.813h-2.906V45.25h2.832c2.219 0 3.297.699 3.297 2.148.015 1.563-1.051 2.336-3.223 2.336zM97.395 54.531c-3.227 0-5.227-1.813-5.227-4.738 0-3.039 1.898-4.703 5.355-4.703 1.621 0 2.805.277 3.824.582v-2.629c-1.34-.395-3.02-.57-4.102-.57-3.793 0-8.23 1.914-8.23 7.336 0 4.664 2.992 7.336 8.188 7.336 1.242 0 2.789-.16 4.176-.453v-2.805c-.875.262-2.309.629-3.91.645h-.074M111.141 42.472c-3.648 0-7.574 2.25-7.574 7.203 0 6.93 5.777 7.469 7.543 7.469 1.781 0 7.574-.539 7.574-7.469 0-4.953-3.911-7.203-7.543-7.203m0 12.059c-2.027 0-4.406-1.258-4.406-4.84 0-3.156 2.203-4.559 4.375-4.559 2.645 0 4.41 1.828 4.41 4.559 0 3.582-2.364 4.84-4.379 4.84zM130.563 51.547c2-.48 3.344-2.148 3.344-4.164 0-3.844-3.152-4.648-5.793-4.648h-6.566v14.133h3.004v-4.645h2.629l3.371 4.645h3.75l-4.059-5.246.32-.075m-3.047-1.813h-2.906V45.25h2.832c2.219 0 3.297.699 3.297 2.148-.001 1.563-1.051 2.336-3.223 2.336zM143.668 42.75h-6.48v14.133h3.008v-4.02h3.488c2.945 0 6.086-1.328 6.086-5.07 0-3.407-1.985-5.043-6.102-5.043m-.293 7.613h-3.18V45.25h3.121c1.535 0 3.301.277 3.301 2.453-.015 2.34-1.637 2.66-3.242 2.66zM159.355 42.472c-3.648 0-7.574 2.25-7.574 7.203 0 6.93 5.781 7.469 7.547 7.469 1.777 0 7.574-.539 7.574-7.469 0-4.953-3.914-7.203-7.547-7.203m0 12.059c-2.027 0-4.406-1.258-4.406-4.84 0-2.73 1.766-4.559 4.379-4.559 2.625 0 4.406 1.828 4.406 4.559.016 3.582-2.351 4.84-4.379 4.84zM178.793 51.547c2-.48 3.344-2.148 3.344-4.164 0-3.844-3.152-4.648-5.793-4.648h-6.57v14.133h3.008v-4.645h2.625l3.371 4.645h3.754l-4.059-5.246.32-.075m-3.051-1.813h-2.902V45.25h2.832c2.219 0 3.297.699 3.297 2.148 0 1.563-1.051 2.336-3.227 2.336zM189.402 42.75l-5.297 14.133h2.992l.949-2.645h7.09l.848 2.645h3.328L193.91 42.75h-4.508m-.496 8.972 2.629-6.941 2.727 6.941h-5.356zM203.25 56.883h3.008V45.25H211v-2.5h-12.492v2.5h4.742v11.633M213.949 42.75h3.004v14.133h-3.004V42.75zM227.551 42.472c-3.648 0-7.563 2.25-7.563 7.203 0 6.93 5.781 7.469 7.547 7.469 1.781 0 7.574-.539 7.574-7.469-.015-4.953-3.925-7.203-7.558-7.203m0 12.059c-2.031 0-4.41-1.258-4.41-4.84 0-3.156 2.203-4.559 4.379-4.559 2.629 0 4.406 1.828 4.406 4.559 0 3.582-2.363 4.84-4.375 4.84zM248.051 52.367l-6.477-9.602h-3.648v14.117h2.945V46.578l7.035 10.305H251V42.765h-2.949v9.602M3.094 42.75H0v14.133h3.008v-8.668l4.523 8.668h2.102l4.535-8.668v8.668h3.008V42.75h-3.094l-5.5 10.246L3.094 42.75M145.711 11.664h-17.074c-.773 0-1.633-.059-2.043-.176-1.516-.41-2.23-1.738-2.23-3.098 0-1.172.641-2.59 2.262-3.086.48-.145.945-.16 1.941-.16h24.223v-5h-24.617c-.965 0-1.754.031-2.438.133-3.984.555-6.875 3.887-6.875 8.125 0 3.785 2.438 7.527 6.773 8.172.945.145 2.391.117 2.785.117h16.551c.23 0 1.063.016 1.281.043 1.973.277 2.992 1.797 2.992 3.492 0 1.434-.875 3.07-2.816 3.422-.246.043-1.125.074-1.414.074h-25.32v5.055h25.715c.305 0 1.734-.016 2.027-.043 4.801-.438 7.313-4.371 7.313-8.535 0-3.668-2.277-7.965-6.918-8.434-.981-.117-1.782-.101-2.118-.101zM96.84 11.664H79.766c-.773 0-1.633-.059-2.043-.176-1.52-.41-2.234-1.738-2.234-3.098 0-1.172.645-2.59 2.262-3.086.484-.145.949-.16 1.941-.16h24.227v-5H79.297c-.961 0-1.75.031-2.434.133-3.984.555-6.875 3.887-6.875 8.125 0 3.785 2.438 7.527 6.77 8.172.949.145 2.395.117 2.789.117h16.547c.234 0 1.066.016 1.285.043 1.969.277 2.992 1.797 2.992 3.492 0 1.434-.875 3.07-2.816 3.422-.25.043-1.125.074-1.414.074H70.82v5.055h25.711c.309 0 1.738-.016 2.031-.043 4.801-.438 7.309-4.371 7.309-8.535 0-3.668-2.289-7.965-6.914-8.434-.98-.117-1.781-.101-2.117-.101zM50.828.144h5.441v28.617h-5.441V.144zM5.441 28.761V5.742l22.535 23.02h7.457V.144h-5.445v22.875L7.617.144H0v28.617h5.441zM220.996 28.761V5.742l22.531 23.02h7.457V.144h-5.441v22.875L223.172.144h-7.617v28.617h5.441zM181.492.144l-17.656 28.617h6.641l3.254-5.289h21.934l3.254 5.289h6.641L187.914.144h-6.422zm-5.062 18.77 8.273-13.449 8.262 13.449H176.43z"/></g></svg>