<svg xmlns="http://www.w3.org/2000/svg" xml:space="preserve" width="1200px" height="800px" x="0px" y="0px" viewBox="0 0 1200 800"><path fill="#FFF" d="m362.249 521.265-20.078-33.255v46.431h-14.745v-65.882h19.137l15.686 26.98 15.059-26.98h19.451v65.882h-14.745V488.01l-19.765 33.255zm47.059-52.706h14.745v65.882h-14.745v-65.882zm71.843 13.804h-17.883v52.078H448.21v-52.078h-17.568v-13.804h50.51v13.804zm5.333 51.451V520.01c3.138.627 10.354 1.882 19.451 1.882 7.529 0 11.294-.941 11.294-5.333 0-4.706-3.137-5.334-13.804-10.354-10.354-4.705-18.196-8.784-18.196-20.078 0-13.804 8.471-18.51 24.784-18.51 8.471 0 14.432.627 18.51 1.255v13.804c-3.765-.313-10.353-1.255-17.882-1.255-8.784 0-10.667.941-10.667 4.706s4.706 5.647 11.922 8.784c10.98 5.02 19.765 9.099 19.765 21.647 0 13.176-8.157 19.137-25.726 19.137a186.023 186.023 0 0 1-19.451-1.881m54.275-21.648v-43.607h14.745v42.98c0 7.529 4.393 10.039 11.608 10.039 6.901 0 11.607-2.51 11.607-10.039v-42.98h14.745v43.607c0 16-10.353 23.216-26.353 23.216s-26.352-7.216-26.352-23.216m65.255-43.607h28.863c13.49 0 21.02 5.02 21.02 16.941 0 9.411-5.334 12.549-10.354 14.431 5.961 1.883 12.235 5.02 12.235 16 0 11.608-6.901 18.51-21.646 18.51h-29.804v-65.882h-.314zm26.667 26.666c5.961 0 8.157-3.137 8.157-7.529 0-5.333-2.51-6.588-8.157-6.588h-11.922v14.117h11.922zm.941 26.98c5.96 0 8.47-2.195 8.47-7.843 0-5.02-2.195-7.216-7.843-7.216h-13.49v15.059h12.863zm32.627-53.646h14.745v65.882h-14.745v-65.882zm25.412 65.255V520.01c3.137.627 10.353 1.882 19.451 1.882 7.529 0 11.294-.941 11.294-5.333 0-4.706-3.138-5.334-13.805-10.354-10.353-4.705-18.195-8.784-18.195-20.078 0-13.804 8.471-18.51 24.784-18.51 8.471 0 14.432.627 18.51 1.255v13.804c-3.765-.313-10.353-1.255-17.883-1.255-8.784 0-10.666.941-10.666 4.706s4.706 5.647 11.921 8.784c10.98 5.02 19.766 9.099 19.766 21.647 0 13.176-8.157 19.137-25.726 19.137-6.589-.313-13.176-.941-19.451-1.881m68.078-25.412v26.039h-14.745v-65.882h14.745v26.039h23.529v-26.039h14.745v65.882h-14.745v-26.039h-23.529zm50.51-39.843h14.745v65.882h-14.745v-65.882zm-378.98 141.49-19.765-33.255v46.431h-15.059v-65.882h19.137l15.686 26.667 15.373-26.667h19.451v65.882h-15.06v-46.431l-19.763 33.255zm44.863-19.765c0-23.53 9.098-33.883 28.549-33.883s28.549 10.353 28.549 33.883c0 23.529-9.098 33.882-28.549 33.882s-28.549-10.352-28.549-33.882m41.411 0c0-13.49-2.195-20.393-13.176-20.393-10.667 0-13.177 6.902-13.177 20.393s2.196 20.392 13.177 20.392 13.176-6.901 13.176-20.392m68.393-19.137h-17.883v52.078h-14.745v-52.078h-17.882v-13.804h50.51v13.804zm2.509 19.137c0-23.53 9.098-33.883 28.549-33.883s28.549 10.353 28.549 33.883c0 23.529-9.098 33.882-28.549 33.882s-28.549-10.352-28.549-33.882m41.412 0c0-13.49-2.196-20.393-13.177-20.393s-13.177 6.902-13.177 20.393 2.196 20.392 13.177 20.392 13.177-6.901 13.177-20.392m25.412-32.941h26.667c14.117 0 23.216 5.333 23.216 21.02 0 10.353-5.02 16.941-13.49 18.823l16.313 26.039H690.72l-13.804-23.529h-6.588v23.529h-14.746v-65.882h-.313zm26.039 29.49c6.589 0 8.784-3.451 8.784-8.471s-2.195-8.471-8.784-8.471h-10.979v16.941h10.979zm32.628 35.451V608.48c3.137.628 10.353 1.883 19.451 1.883 7.529 0 11.294-.941 11.294-5.333 0-4.706-3.138-5.334-13.804-10.354-10.354-4.706-18.196-8.784-18.196-20.078 0-13.804 8.471-18.51 24.784-18.51 8.471 0 14.432.627 18.51 1.255v13.804c-3.765-.313-10.353-1.255-17.883-1.255-8.783 0-10.666.941-10.666 4.393 0 3.765 4.706 5.646 11.922 8.784 10.98 5.02 19.765 9.098 19.765 21.646 0 13.177-8.157 19.138-25.726 19.138-6.589.313-13.177-.314-19.451-1.569"/><path fill="#E60013" d="m512.21 200.01 63.059 109.489 63.373-109.489-63.373-109.177L512.21 200.01zM701.7 309.499H575.269l63.373 109.177h126.117L701.7 309.499zm-252.549 0h126.117L512.21 418.676H386.092l63.059-109.177z"/></svg>