<svg xmlns="http://www.w3.org/2000/svg" xml:space="preserve" width="580.017px" height="580px" x="0px" y="0px" viewBox="519.983 0 580.017 580"><path fill="#FFF" d="m1089.22 11.852-132.048-.402-2 9.205s31.188 15.202 40.015 23.204c8.826 8.003 10.372 9.53 10.372 9.53l-41.882 41.063a288.219 288.219 0 0 1 42.448 42.59l39.886-41.561 35.198 47.229h8.02l-.009-130.858z"/><path fill="#FFF" d="m1050.096 127.218-29.967 29.691a247.5 247.5 0 0 1 38.57 130.547c1.404 137.345-108.799 249.824-246.148 251.228S562.713 429.889 561.31 292.539 670.113 42.715 807.458 41.316a247.517 247.517 0 0 1 136.855 39.36l30.743-29.188C926.928 18.027 869.831 0 810.051 0h-3.016C729.576.807 657.063 31.714 602.87 87.043c-54.192 55.328-83.647 128.461-82.872 205.92.802 76.933 31.354 149.094 86.045 203.197S733.109 580 809.944 580h3.017c159.899-1.636 288.658-133.051 287.023-292.945-.588-57.859-18.022-113.014-49.901-159.823"/><path fill="#FFF" d="M654.176 269.558h10.247l-17.131 31.661-17.354-31.634h12.444v-7.904h-51.443v7.882h11.771l23.926 43.468h27.7l23.507-43.473h11.79v-7.877h-35.457v7.877zm173.911 35.519h-10.97v-35.52h11.83v-7.873h-47.491v7.873h11.954v35.537h-11.954v7.967h71.288v-23.806h-7.833c0 9.108-6.683 15.822-16.824 15.822m-96.208-44.43c-23.578 0-36.089 11.768-36.089 26.528 0 14.966 12.061 26.897 36.245 26.897s36.09-11.932 36.09-26.897c0-14.761-12.658-26.528-36.246-26.528m-.244 45.352c-8.613-.155-12.4-9.677-12.235-19.132.174-9.802 4.861-18.339 12.921-18.196 8.061.143 12.328 8.845 12.154 18.633-.164 9.241-3.974 18.855-12.845 18.713m182.114-36.459h10.248l-17.123 31.661-17.354-31.634h12.443v-7.904h-51.451v7.882h11.762l23.927 43.468h27.699l23.517-43.473h11.789v-7.877h-35.457v7.877zm77.575-9.143c-23.774 0-36.406 11.865-36.406 26.733 0 15.09 12.159 27.12 36.535 27.12s36.406-12.03 36.406-27.12c0-14.881-12.765-26.733-36.535-26.733m-.262 45.718c-8.685-.156-12.476-9.753-12.333-19.287.174-9.878 4.9-18.486 13.032-18.344 8.131.143 12.426 8.911 12.248 18.789-.16 9.312-4.01 19.007-12.947 18.842"/></svg>