<?xml version="1.0" standalone="no"?>
<!DOCTYPE svg PUBLIC "-//W3C//DTD SVG 20010904//EN"
 "http://www.w3.org/TR/2001/REC-SVG-20010904/DTD/svg10.dtd">
<svg version="1.0" xmlns="http://www.w3.org/2000/svg"
 width="200.000000pt" height="98.000000pt" viewBox="0 0 200.000000 98.000000"
 preserveAspectRatio="xMidYMid meet">

<g transform="translate(0.000000,98.000000) scale(0.100000,-0.100000)"
fill="#000000" stroke="none">
<path d="M752 908 c-295 -37 -546 -161 -621 -308 -13 -25 -21 -35 -18 -22 4
16 1 22 -13 22 -23 0 -50 -26 -51 -48 0 -10 -3 -12 -5 -5 -17 41 93 183 187
244 27 17 49 33 49 35 0 8 -57 -25 -106 -62 -190 -141 -211 -325 -56 -476 53
-51 182 -138 206 -138 6 0 -18 17 -53 37 -85 50 -177 142 -207 206 -13 29 -24
59 -23 67 0 8 5 4 10 -10 6 -13 12 -26 14 -29 9 -9 35 22 36 43 0 11 8 -1 17
-29 21 -64 112 -158 202 -207 293 -162 822 -194 1188 -72 181 60 297 141 350
244 29 55 33 60 28 30 -8 -45 6 -69 28 -51 25 21 18 0 -12 -39 -44 -58 -113
-115 -185 -155 -64 -35 -87 -53 -49 -37 57 23 147 80 195 123 103 91 140 208
102 320 -27 80 -137 184 -255 244 -45 23 -28 5 31 -31 71 -44 153 -124 140
-137 -15 -15 -14 -44 4 -92 8 -22 14 -51 14 -65 -1 -14 -6 -3 -13 25 -18 73
-38 106 -102 164 -111 102 -303 175 -543 207 -117 15 -375 17 -489 2z m-3 -83
c12 -31 21 -59 21 -64 0 -5 11 -24 24 -44 13 -19 21 -39 18 -43 -4 -4 -2 -5 3
-1 6 3 91 -6 190 -19 217 -29 248 -30 350 -14 101 15 109 20 124 69 12 42 31
55 31 22 0 -10 5 -32 11 -50 8 -23 17 -31 35 -31 14 0 54 -7 91 -16 71 -18 68
-27 -11 -38 -27 -3 -54 -10 -60 -15 -6 -5 -20 -10 -30 -12 -11 -3 -24 -18 -31
-39 l-13 -35 -10 25 c-16 42 -37 52 -145 72 -95 17 -108 17 -197 3 -52 -8
-133 -24 -179 -35 -48 -12 -97 -18 -115 -14 -26 4 -37 0 -59 -22 -28 -28 -40
-60 -59 -161 -6 -35 -14 -63 -18 -63 -3 0 -17 44 -30 97 -17 74 -30 104 -51
125 -27 28 -57 39 -43 16 5 -7 2 -9 -9 -5 -8 3 -32 9 -51 13 -20 3 -36 10 -36
14 0 4 -60 15 -132 24 -168 22 -191 27 -181 36 4 4 91 18 193 30 102 12 197
26 213 32 30 11 60 48 72 88 16 52 45 110 54 110 5 0 19 -25 30 -55z m1181
-209 c0 -5 -9 3 -20 17 -11 14 -20 29 -20 34 1 10 39 -39 40 -51z m-646 -107
l6 -36 89 -12 c83 -10 214 -3 242 15 5 3 16 22 25 42 l16 37 10 -30 c16 -46
26 -54 89 -67 65 -13 69 -28 8 -28 -51 0 -86 -23 -95 -63 l-7 -32 -13 31 c-7
17 -19 36 -27 42 -23 20 -156 32 -230 22 -78 -11 -112 -36 -122 -86 -7 -37
-25 -37 -25 0 0 12 -13 35 -29 50 -25 24 -40 29 -101 34 -87 6 -89 24 -4 34
99 12 103 15 125 66 22 51 31 47 43 -19z m-1177 9 c-3 -7 -5 -2 -5 12 0 14 2
19 5 13 2 -7 2 -19 0 -25z m924 -212 c2 -3 48 -12 101 -20 78 -13 112 -14 175
-5 43 6 81 13 85 15 4 3 11 19 16 36 4 18 13 33 20 36 7 2 12 0 10 -5 -1 -4 1
-22 4 -39 6 -28 12 -32 64 -43 32 -6 69 -11 83 -12 l26 -1 -25 -8 c-14 -4 -41
-8 -60 -9 -38 -1 -90 -40 -90 -66 0 -8 -4 -15 -10 -15 -5 0 -10 9 -10 19 0 53
-118 81 -259 61 -86 -12 -136 -42 -146 -90 -9 -42 -21 -37 -33 13 -14 51 -39
66 -132 73 -114 10 -118 25 -10 39 103 12 117 20 136 78 l18 52 16 -52 c8 -29
18 -54 21 -57z"/>
<path d="M340 146 c0 -2 7 -7 16 -10 8 -3 12 -2 9 4 -6 10 -25 14 -25 6z"/>
</g>
</svg>
