<svg xmlns="http://www.w3.org/2000/svg" xml:space="preserve" width="760.592px" height="341.791px" x="0px" y="0px" viewBox="0 0 760.592 341.791"><path fill="#FFF" d="M160.656 29.836c5.167 1.568 9.793 4.373 13.841 7.646-12.329-6.897-19.423-8.284-19.88-8.36l-.132-.015a50.777 50.777 0 0 1-4.989-1.006 31.026 31.026 0 0 0 6.614-2.154c.003.038.005.076.004.114.941 2.573 3.431 3.476 4.542 3.775zm-58.998 4.433s.529-1.531.665-1.905c.151-.366 1.606-4.361 5.231-4.735 0 0 2.098-.129 5.329-.129 0 0-1.58 5.084-7.801 6.18 0 0-2.441.556-3.42.59h-.004zm625.088 164.357c-1.277 4.437-7.607 10.355-15.303 13.765-8.077 3.617-24.93 4.565-34.662 2.975-.026 0-18.879-1.912-35.396-19.17-5.208-5.442-11.618-11.622-17.537-17.726-2.601-2.729-9.007-9.132-19.653-10.553-11.097-1.493-38.181-2.229-48.37-5.612-6.804-2.268-15.021-6.879-25.939-23.059-5.261-7.748-8.995-9.876-16.149-14.416 0 0 5.483 4.358 8.595 9.865 4.482 7.993 6.746 13.813 9.188 18.069 2.441 4.278 5.208 8.065 9.366 11.414 5.178 4.158 8.417 4.94 14.021 5.87 5.379.896 23.509.733 39.062.503 15.308-.246 22.133 4.697 27.16 8.935 4.656 3.916 12.631 15.122 17.536 20.043 5.848 5.816 10.122 11.766 21.688 17.594 4.006 2.041 10.583 7.029 10.242 11.853-5.192 5.204-11.645 6.572-27.121 2.438 1.096 1.069 9.195 9.577 23.055 5.556-4.18 3.492-8.277 4.978-12.556 4.747-14.502-.801-28.717-18.671-36.681-25.273-6.055-5.004-6.754-6.263-17.034-13.38-15.617-10.813-50.657-7.767-50.657-7.767l-25.716 1.338c-50.078 3.779-71.111-40.577-76.652-49.837-1.935-3.212-3.666-5.805-5.333-7.906-2.555-3.409-16.236-21.158-30.073-26.986 0 0 13.595 11.702 12.794 19.438 0 0-5.64-2.611-20.962-.427-65.972 9.403-88.426-7.105-88.426-7.105 3.062-13.225-6.168-26.797-6.168-26.797 5.087 1.617 37.523 12.578 68.326 6.322 0 0-50.128.265-85.273-27.768 0 0 21.872 27.405 16.683 45.354 0 0-3.59 19.12-41.718 11.406-4.071-.801-8.863-2.162-65.934-17.998-13.417-4.018-18.047 2.393-20.47 6.24-.102 5.643-6.75 12.227-10.103 14.286-17.658-3.179-10.625-19.566-10.625-19.566-11.116 15.9.529 22.923 4.21 23.422-2.2 1.069-4.29 1.841-6.059 2.494 0 0-14.43-8.595-6.369-22.677 11.252-19.635 22.708-25.936 43.714-27.855 9.184-.877 16.845-1.53 22.677-.729 15.239 2.105 24.786 10.708 47.607 12.926-48.435-14.268-48.541-42.323-48.707-42.852-.008-.008-.019-.061-.019-.061-2.684 9.26-1.209 17.057 1.157 23.645-.673-.238-11.263-7.2-15.3-9.653-17.394-10.62-31.117-12.472-31.117-12.472-5.771-.733-8.455-7.745-8.455-7.745-.2-.358-.408-.684-.604-1.021-8.028-13.7-15.954-13.973-15.954-13.973 2.835 3.855 3.908 8.758 4.309 11.815.231 1.757.454 4.974.45 5.941-.147 14.627-17.091 19.238-17.091 19.238-11.815 14.989-11.199 15.304-13.822 15.688-2.638.371-8.398-2.565-8.398-2.565-.45-.238-.567-.893-.491-1.319.144-.907.88-1.481.88-1.481a60.577 60.577 0 0 0 4.025-3.5c12.48-12.768 13.977-19 12.435-27.273-3.152-16.604-15.016-14.668-15.016-14.668-5.779.548-8.103 5.313-8.103 5.313-1.98 3.062-6.18 12.42-6.18 12.42-2.578 5.578-5.208 6.841-6.569 7.091-.682.079-1.37.104-2.056.075-4.01-.144-7.064-3.848-7.064-3.848-.171-.178-.338-.36-.499-.548-3.673-3.942-1.009-9.09-1.009-9.09 4.943-11.527 14.551-13.198 15.851-13.364 1.346-.17 5.764-.813 5.764-.813 12.204-2.053 17.964-14.76 17.964-14.76-8.228-.102-12.246.442-12.246.442-8.092 1.414-10.847 10.949-10.847 10.935-6.853 1.568-6.675-4.32-5.473-6.123 1.074-1.659 5.103-8.723 31.419-14.815 0 0 12.979-3.904 40.717-2.646l-1.141 2.12c-2.453 4.641-12.182 14.207-28.26 10.662 0 0 .14 7.143 17.579 9.702 0 0 15.772 2.815 42.52 24.31 0 0-12.793-25.406-34.503-31.982 0 0-2.706-.582-1.379-2.283 0 0 12.828-12.053 30.652-12.041 0 0 55.601 1.19 90.913 38.136 0 0-1.55-6.426-7.105-15.526l-2.332-3.795s2.116.242 7.922 1.19c0 0 21.222 2.646 71.082 19.861 0 0 37.353 12.269 57.796 20.383 30.724 12.234 107.701 42.055 156.771 68.811 8.765 4.762 97.522 51.046 97.522 51.046 24.578 11.04 41.59 4.331 41.59 4.331 5.533-2.101 15.572-9.815 19.956-5.453 2.268 2.256 2.566 5.295 1.481 8.266v.003zM119.694 47.573c-2.566-1.795-5.435-2.146-8.035-1.731 1.149-.85 2.971-.96 2.971-.96 1.202-.144 6.89-.362 9.524 8.542-1.127-2.551-2.661-4.592-4.46-5.851zm-42.017 2.502c5.613-8.277 12.93-14.51 13.009-14.574.098-.087.208-.162.276-.257.106-.113.189-.227.306-.332a6.686 6.686 0 0 0 1.784 1.474C88.785 38.2 77.677 50.075 77.677 50.075zm79.34-45.392C252.624-.983 391.476 59.452 392.83 60.064l.091.022.079.023a2122.704 2122.704 0 0 1 33.048 13.47c-2.445-.964-15.05-5.972-15.072-5.972-20.296-8.065-57.615-20.342-57.937-20.447-48.93-16.872-70.318-19.85-71.841-20.047-5.794-.944-8.001-1.194-8.088-1.198l-8.817-1.017 4.864 7.885C234.618 8.342 193.27 7.113 191.244 7.064h-.091c-8.33 0-15.609 2.366-21.249 5.083.646-1.187 2.82-5.25 2.82-5.25l-6.845-.298c-12.242-.552-21.706-.125-28.551.552 10.934-2.022 19.461-2.472 19.691-2.472l-.002.004zm575.066 183.16c-3.602-8.009-13.516-5.404-13.516-5.404-4.687.975-10.03 6.346-17.979 8.696-17.061 5.054-30.682-.824-30.682-.824-26.268-11.35-110.714-59.697-153.657-80.817 0 0-49.258-24.699-121.655-53.367 0 0-140.058-61.538-237.842-55.74 0 0-50.691 2.253-66.546 25.285 0 0-2.706 3.072-1.168 6.402 0 0 .302.956-.336 1.588 0 0-8.523 7.642-12.858 14.43-1.523 2.468-3.216 6.614-.091 9.517 0 0 1.41 1.093 2 2.049 1.236 2.022 2.385 5.03 3.919 6.826 2.207 2.642 6.689 7.211 12.994 6.111 2.324-.404 2.823-1.281 2.823-1.281 3.156 3.137 8.277 3.039 8.277 3.039-.642-2.008-2.834-5.941-3.152-8.323-.34-2.619.423-5.121.423-5.121.892-2.975 2.661-6.716 4.611-8.605 1.701-1.693 6.078-3.633 9.6-1.198 2.808 1.991 6.161 8.478 3.371 17.737-.128.699-3.201 7.268-6.5 8.266 0 0-.306.099-.941.099-2.215 0-6.35-2.321-6.35-2.321s-.109.59.48 2.986c.374 1.359.79 2.707 1.247 4.04 0 0-.801 1.437-1.323 2.271-.794 1.433-1.467 4.157.242 5.404 0 0 7.313 4.975 14.411 5.405 4.891.299 6.739-3.001 6.739-3.001 3.594-4.959 6.312-9.188 10.106-12.643 10.375-9.502 24.945-12.057 24.945-12.057.964-.121 16.875-4.547 43.918 17.083-7.725.62-16.917 2.461-23.939 3.708-20.032 3.572-32.89 22.477-36.631 30.164-9.736 20.069 10.167 26.986 10.167 26.986.189-.186 18.977-1.663 28.052-21.642 0 0 3.322-8.844 12.14-5.979 5.768 1.871 56.731 19.684 68.209 22.704 0 0 34.129 8.882 46.979-6.811 20.545 6.738 39.821 10.004 90.331 3.484 8.769-1.142 15.662-.881 15.662-.881 11.8.885 22.564 8.821 25.829 14.033 13.278 21.257 30.131 63.481 88.623 58.341l26.453-2.396c16.142-.96 29.287-1.592 42.617 5.427 5.806 3.047 9.033 4.165 18.879 13.565 13.475 12.819 25.883 26.694 42.369 19.124 5.851-2.694 12.427-13.152 12.427-13.152-.635-4.771-2.759-9.362-8.005-13.274 14.981 3.557 48.778 5.862 61.859-17 3.38-5.329 3.746-10.072 2.469-12.933zM143.471 18.671c.747.025 1.494.044 2.241.057 3.508.057 7.465-1.387 10.095-2.615 1.878-.881 3.092-1.644 2.933-1.644-2.434-.023-6.334-.061-7.79-.061-6.331 0-9.657 3.59-9.683 3.919-.022.204.847.291 2.204.344m346.961 260.681v30.119c0 7.798-.858 13.958-4.789 19.109-6.391 8.391-18.115 13.206-50.815 13.206l-.34.004c-32.523 0-44.304-4.827-50.691-13.198-3.931-5.155-4.777-11.323-4.777-19.117V279.36h22.5v29.258c0 7.854.99 12.469 3.869 16.517 4.865 6.859 13.267 9.335 28.377 9.335h1.913c15.802 0 23.509-2.476 28.377-9.335 2.88-4.063 3.87-8.875 3.87-16.494v-29.288h22.506zm223.8 7.623c8.436 0 12.17.783 14.74 2.707 2.438 1.825 3.307 4.61 3.307 8.949v1.135c0 3.915-.934 7.094-3.806 9.086-2.823 1.954-6.776 2.381-13.966 2.381h-44.605v-24.254l44.33-.004zm10.946 31.473c8.459-.283 15.625-1.557 21.15-4.535 5.729-3.084 8.459-8.912 8.459-14.952 0-8.077-3.609-13.251-10.183-16.139-5.843-2.577-13.062-3.462-27.439-3.462h-69.763v60.438h22.5v-20.946h29.556l33.722 20.946h27.412l-35.414-21.35zm-393.385 13.267v-19.673h22.394v27.746h-65.114c-12.208 0-21.831-1.418-29.091-4.347-12.098-4.876-17.631-13.796-17.631-25.98 0-11.509 6.024-19.491 13.693-23.789 8.152-4.569 17.337-6.319 32.633-6.319h63.22v8.073h-56.213c-12.045 0-18.606 1.818-23.61 5.885-4.445 3.609-6.811 9.019-6.811 16.26 0 7.483 2.487 13.009 7.238 16.63 5.016 3.817 11.773 5.515 23.369 5.515h35.923zm-235.29-52.359v29.473c0 9.536-2.192 15.318-6.72 19.956-7.907 8.089-23.074 11.01-44.534 11.01H0v-8.11h41.658c12.778 0 21.415-2.117 26.623-7.265 3.946-3.893 5.719-9.324 5.719-17.394V279.36l22.503-.004zm494.603 47.57h-66.667l-11.047 12.869h-13.047l52.426-60.435h22.182l52.471 60.435h-25.228l-11.09-12.869zm-59.965-7.813h53.242l-26.66-30.95-26.582 30.95zm-333.608 7.813h-66.671l-11.047 12.869h-13.043l52.43-60.435h22.171l52.479 60.435h-25.228l-11.091-12.869zm-59.962-7.82h53.234l-26.657-30.951-26.577 30.951z"/></svg>