<svg xmlns="http://www.w3.org/2000/svg" xml:space="preserve" width="581px" height="236px" x="0px" y="0px" viewBox="519.5 171.5 581 236"><g fill="#FFF"><path d="M953.239 195.543c0 10.46-36.664 30.449-67.839 30.449-48.472 0-98.911-23.199-122.111-28.481-25.271-5.904-48.16-10.771-66.182-10.771-63.179 0-91.351 27.136-90.107 52.097.621 10.149 8.804 16.675 20.922 14.396 13.05-2.278 31.485-14.707 36.042-25.582.933-2.278 3.625-2.589 4.558-1.968 1.968 1.657 1.347 3.936 1.347 3.936-1.657 12.739-21.336 48.161-55.308 48.161-18.953 0-31.796-17.711-31.485-35.007.311-32.418 33.453-65.146 114.964-65.146 15.433 0 32.729 1.346 51.786 4.557 21.957 3.936 76.643 13.05 121.179 13.775 16.364 0 37.285.621 54.375-1.968 18.021-2.9 14.085-3.625 21.335-3.625 6.524-.105 6.524 2.484 6.524 5.177zM1078.354 346.447c-1.347 0-3.625 2.899-4.868 4.557-6.214 6.525-32.106 33.454-46.192 34.075 2.899 0-4.868 1.657-5.593-4.558-.311-3.936 2.899-8.803 4.246-11.496l70.118-124.078h-25.893l-42.258 71.36c-3.314-6.525-8.182-21.957-27.55-22.268-32.107-.311-44.536 21.646-66.804 42.567-6.525 5.903-14.396 13.775-32.418 13.775-10.461 0-18.643-8.493-16.675-19.368 1.347-8.493 4.246-12.739 10.461-15.018 2.899 8.492 8.493 13.05 18.021 13.05 10.771-.311 16.985-10.15 17.399-18.643 0-7.25-4.557-16.364-17.711-16.985-12.117-.622-21.335 4.867-34.385 19.988 0 0 3.313-22.268-21.336-21.646-2.59 0-5.282 0-7.871 1.346-13.465 4.247-30.762 25.893-44.536 42.568.621-3.314.621-6.525.621-9.84 0-9.528-3.625-21.957-10.149-28.481-1.347-1.347-2.59-1.347-3.936-1.347-4.247 0-7.872 3.625-7.872 9.218 3.314 3.314 7.561 11.496 7.561 19.368 0 7.871-2.278 22.268-5.593 27.86-12.429 21.336-28.171 35.007-47.125 32.107-10.149-2.279-16.985-12.118-15.018-26.825.932-8.493 6.214-20.3 11.186-27.55 8.183-11.186 21.646-22.579 41.222-25.582 0 0 .932-3.937-1.657-5.904-.933-1.656-2.278-3.625-6.836-3.625-27.86.933-44.847 20.922-54.686 40.601-3.625 6.835-8.804 16.675-11.807 22.889 0 0-2.59 7.25-14.708 16.364-6.214 4.868-8.182 6.525-9.218 6.215.311 2.278 1.968 5.593 4.868 8.182.933.622 4.246-1.346 5.593-1.968 15.432-8.804 16.985-13.05 16.985-13.05 3.314 18.332 18.954 27.86 36.354 27.86 23.925 0 45.882-21.646 58.621-40.6 13.464-19.989 31.796-39.668 31.796-39.668 7.25-6.836 14.708-11.496 19.368-11.496 4.246.311 7.25 3.936 6.215 7.871-1.658 6.836-3.937 13.464-8.493 21.646l-35.732 60.589h27.86c16.054-30.139 16.676-31.071 32.418-59.968 4.247 16.054 12.739 22.269 26.515 22.579 11.808.311 19.989-.311 28.793-4.868-2.278 9.218-.933 18.332 1.968 24.547 3.314 7.561 9.839 16.985 25.893 17.399 19.368 0 38.321-8.492 43.914-13.464 1.657 9.528 6.215 14.396 18.332 14.396 24.547-.622 46.193-25.894 59.243-42.258 2.278-2.899 5.282-7.871 5.282-9.218.002-1.86-2.587-3.205-3.933-3.205zm-64.526-7.769s-11.082 18.644-22.578 30.14c-20.3 20.61-33.453 13.775-36.354 11.496-2.9-2.278-5.282-10.46-3.936-18.643.932-8.182 7.25-21.957 13.05-29.104 11.808-14.396 26.203-24.235 37.7-22.89 14.086 1.657 15.432 15.433 8.492 28.172l3.626.829z"/><path d="M781 246.604c0-5.282-3.936-10.15-9.84-11.186-10.46-1.657-18.643 6.835-19.678 20.921 0 3.625 1.346 7.872 1.346 7.872s-22.889 3.936-42.567 4.867c24.235-40.91 46.504-55.307 53.028-61.211 1.347-.932 4.558-4.557 4.868-5.281 1.347-3.314-1.657-5.282-2.9-5.282-7.871-.312-45.882 27.86-75.296 73.018-7.561.932-38.943 3.625-49.404 15.432-1.035 1.347-1.967 3.625-1.967 4.247.621 2.589 2.589 3.936 5.592 1.657 6.525-7.562 33.04-10.461 39.254-10.771-38.632 54.374-74.364 90.106-106.057 90.106-3.314 0-6.525.311-10.15-.621-12.739-2.9-20.3-16.364-20.3-28.482 0-16.054 15.432-33.453 24.235-36.664 2.9-1.347 4.247-2.9 4.247-4.246 0-1.969-1.347-3.314-4.868-3.314-30.45 7.561-46.814 32.418-46.504 52.718.622 33.453 25.893 52.097 54.375 52.097 39.979 0 60.279-17.4 125.426-122.836 25.893-2.589 38.632-4.246 51.785-6.525 0 0 3.936 9.529 13.775 9.529 1.656.311 1.346-1.347 2.278-4.868-4.247-.311-9.218-3.314-9.218-6.836 3.936-1.968 7.25-4.246 10.149-6.524 4.145-4.043 8.391-12.224 8.391-17.817zm-20.3 16.985c-.933-3.936-1.657-7.561 0-12.739 1.347-4.868 4.246-7.25 9.218-8.182 2.278-.312 3.314 1.968 3.625 3.936.621 3.936-2.59 9.839-4.558 11.807-4.97 5.592-8.285 5.178-8.285 5.178z"/></g></svg>