<svg xmlns="http://www.w3.org/2000/svg" xml:space="preserve" width="1024px" height="1024px" x="0px" y="0px" viewBox="0 0 1024 1024"><path fill="#FFF" d="M512.609 973.889c-253.691 0-461.534-208.862-461.534-462.553 0-57.055 10.188-111.054 29.546-161.995l269.992 543.041c3.057 7.132 8.151 13.245 16.301 13.245 8.151 0 13.245-6.113 16.302-13.245l124.298-278.144c1.02-3.057 3.057-6.113 6.113-6.113s4.075 3.057 6.113 6.113l124.298 278.144c3.057 7.132 8.151 13.245 16.302 13.245s13.245-6.113 16.302-13.245L946.635 349.34c19.357 50.942 29.546 104.941 29.546 161.996-2.037 253.691-209.881 462.553-463.572 462.553zm0-567.493c-3.057 0-4.075-3.057-6.113-6.113L361.821 74.254c46.866-17.32 97.809-26.489 150.788-26.489s103.922 9.169 150.788 26.489L518.723 400.282c-2.038 4.076-3.057 6.114-6.114 6.114zM364.877 741.594c-3.056 0-4.075-3.057-6.113-6.113L124.432 262.74c41.772-64.187 97.809-118.186 166.071-155.883L459.63 482.809c2.037 6.112 7.132 8.15 12.226 8.15h81.508c6.112 0 10.188-1.019 13.244-8.15l169.128-375.952c67.243 37.697 124.298 91.696 166.07 155.883l-236.37 472.741c-1.02 3.057-3.057 6.113-6.113 6.113s-4.075-3.057-6.113-6.113L564.57 533.75c-3.057-7.132-7.132-8.15-13.245-8.15h-81.507c-6.113 0-10.188 1.019-13.245 8.15L370.99 735.48c-1.018 3.057-3.056 6.114-6.113 6.114zm147.732 279.161c282.219 0 509.419-227.2 509.419-509.419S794.828 1.916 512.609 1.916 3.19 229.117 3.19 511.336s227.201 509.419 509.419 509.419z"/></svg>