<svg xmlns="http://www.w3.org/2000/svg" xml:space="preserve" width="300px" height="67.785px" x="0px" y="0px" viewBox="0 0 300 67.785"><path fill="#FFF" d="M17.785 53.691h6.376V67.56h2.237V53.691h6.376V51.9H17.785v1.791zm23.378 2.237c-2.013 0-3.691.783-4.81 2.461v-6.486h-2.125v15.66h2.125v-5.146c0-3.58 2.238-4.922 4.475-4.922 2.013 0 3.467 1.119 3.467 3.915v6.264h2.126v-6.375c0-3.694-2.126-5.371-5.258-5.371m10.515 4.81c.335-2.461 1.901-3.58 4.139-3.58 1.901 0 3.803 1.008 3.915 3.58h-8.054zm4.139-5.033c-4.027 0-6.488 2.125-6.488 6.264 0 3.58 2.349 5.816 6.376 5.816 2.796 0 5.48-1.006 5.928-3.803h-2.349c-.447 1.565-1.79 2.236-3.691 2.236-2.573 0-3.915-1.678-4.139-3.914h10.403v-.671c.112-3.803-2.014-5.929-6.04-5.928zm85.57 2.46-.112-2.237h-2.125c.112.895.112 1.678.112 2.573v8.612h2.125v-5.368c0-2.796 1.23-4.14 3.915-4.14.447 0 .896 0 1.678.225v-2.014c-.336 0-.56-.111-1.342-.111-2.014 0-3.356 1.117-4.251 2.46m65.884 0-.112-2.237h-2.125c.11.895.11 1.678.11 2.573v8.612h2.238v-5.368c0-2.796 1.23-4.14 3.915-4.14.447 0 .894 0 1.677.225v-2.014c-.334 0-.559-.111-1.342-.111-2.124 0-3.579 1.117-4.361 2.46m-90.716 7.16-3.915-9.62h-2.797l-3.803 9.62-3.58-9.62H100l4.474 11.186h2.909l3.69-9.508 3.916 9.508h2.796l4.363-11.186h-2.237l-3.356 9.62zM77.74 59.842h-4.586V53.58h4.475c3.02 0 4.026 1.119 4.026 2.908 0 2.238-1.006 3.355-3.915 3.355m-.111-7.941h-6.712v15.66h2.237v-5.928h4.81c4.139 0 6.152-2.125 6.152-5.033 0-2.685-1.678-4.699-6.487-4.699m14.094 14.319c-3.02 0-4.587-2.014-4.587-4.475 0-2.686 1.566-4.475 4.587-4.475 3.132 0 4.698 1.901 4.698 4.475 0 2.46-1.566 4.475-4.698 4.475m0-10.515c-4.475 0-6.936 2.46-6.936 6.04 0 3.803 2.461 6.04 6.936 6.04 4.586 0 6.935-2.125 6.935-6.04.112-3.803-2.237-6.04-6.935-6.04m34.675 5.032c.336-2.459 1.902-3.579 4.139-3.579 1.901 0 3.803 1.008 3.803 3.579h-7.942zm4.139-5.032c-4.027 0-6.488 2.125-6.488 6.265 0 3.579 2.35 5.815 6.376 5.815 2.796 0 5.481-1.007 5.928-3.804h-2.237c-.447 1.566-1.79 2.238-3.69 2.238-2.574 0-3.916-1.679-4.14-3.916h10.403v-.67c0-3.803-2.237-5.929-6.152-5.928zm86.913 5.032c.335-2.459 1.901-3.579 4.138-3.579 1.902 0 3.803 1.008 3.803 3.579h-7.941zm4.25-5.032c-4.027 0-6.487 2.125-6.487 6.265 0 3.579 2.35 5.815 6.375 5.815 2.797 0 5.48-1.007 5.93-3.804h-2.238c-.447 1.566-1.789 2.238-3.691 2.238-2.572 0-3.915-1.679-4.138-3.916h10.401v-.67c-.112-3.803-2.237-5.929-6.152-5.928zm-50.559-.783v.447h-2.796v1.565h2.796v9.732h2.237v-9.732h4.474V55.37h-4.474v-.896c0-1.789.783-2.349 2.46-2.349.561 0 1.344.112 2.35.336v-1.565c-.782-.112-1.678-.225-2.797-.225-3.243-.11-4.25 1.679-4.25 4.252M160.18 66.221c-3.021 0-4.699-2.014-4.699-4.475 0-2.686 1.679-4.475 4.699-4.475 3.131 0 4.697 1.901 4.697 4.475 0 2.46-1.678 4.475-4.697 4.475m0-10.515c-4.475 0-6.936 2.46-6.936 6.04 0 3.803 2.46 6.04 6.936 6.04 4.473 0 6.935-2.125 6.935-6.04-.001-3.803-2.349-6.04-6.935-6.04m100.111 0c-2.35 0-3.803 1.565-4.363 2.796-.67-1.9-2.349-2.796-4.025-2.796-1.566 0-3.133.782-4.141 2.46l-.111-2.014h-2.012c.11.896.11 1.679.11 2.574v8.612h2.237v-5.37c0-3.355 1.902-4.697 3.58-4.697 1.789 0 2.685 1.23 2.685 4.362v5.705h2.125v-5.37c0-3.914 2.46-4.697 3.58-4.697 2.235 0 2.796 1.455 2.796 4.475v5.593h2.237V60.85c-.112-3.691-2.014-5.145-4.698-5.144m15.66 5.48-3.691-.783c-1.678-.336-2.35-.67-2.35-1.565 0-1.118 1.343-1.678 3.244-1.678 1.565 0 3.02.446 3.132 1.79h2.237c0-2.686-2.908-3.355-5.369-3.355-2.908 0-5.48 1.006-5.48 3.467 0 1.789 1.342 2.461 3.02 2.908l3.468.783c1.229.223 2.46.559 2.46 1.566 0 1.229-1.23 1.9-3.69 1.9-2.014 0-3.355-.559-3.579-2.125h-2.35c.225 2.573 2.573 3.58 5.705 3.58 4.25 0 6.152-1.23 6.152-3.58.111-1.678-.896-2.459-2.909-2.908m-82.215 4.699h-4.14V53.579h3.804c5.593 0 6.936 2.126 6.936 6.153 0 3.243-1.231 6.152-6.6 6.153m.224-13.983h-6.601v15.66h6.713c5.479 0 8.613-2.797 8.613-7.83.001-5.035-2.685-7.83-8.725-7.83m45.974 10.403c0 2.684-1.566 3.914-4.25 3.914-2.127 0-3.021-.895-3.021-2.125 0-2.46 4.362-2.236 6.04-2.236h1.117v.447h.114zm2.125-2.685c0-2.685-2.238-3.915-5.369-3.915-2.461 0-5.258.67-5.48 3.355h2.348c.112-1.119 1.23-1.901 3.244-1.901 1.901 0 3.244.671 3.244 2.685v.447h-1.23c-2.572 0-8.277-.225-8.277 3.691 0 2.236 1.9 3.69 4.697 3.69 2.238 0 3.58-.223 4.811-1.901l.112 1.566h2.013c-.111-.671-.111-1.342-.111-2.125V59.62z"/><path fill="#C00" d="m34.564 5.817 4.586.559c2.013.224 2.237 1.901 2.237 3.02v5.37H20.47v-5.37c0-1.119.224-2.796 2.237-3.02l4.586-.56V1.23H0v4.587l4.586.559C6.6 6.6 6.823 8.277 6.823 9.396v17.673c0 1.119-.223 2.797-2.237 3.02L0 30.761v4.586h27.181V30.76l-4.586-.56c-2.013-.223-2.237-1.901-2.237-3.02v-5.369h20.917v5.37c0 1.118-.224 2.796-2.237 3.02l-4.586.559v4.585h27.181V30.76l-4.586-.56c-2.013-.223-2.237-1.901-2.237-3.02V9.396c0-1.119.224-2.796 2.237-3.02l4.586-.56V1.23H34.452v4.587h.112zM213.87 28.859h-11.41V7.83h11.41c6.712 0 8.948 3.244 8.948 10.515 0 7.27-2.236 10.514-8.948 10.514m2.461-27.629h-33.558v4.587l4.027.447c1.454.224 2.35.783 2.35 2.796v18.121c0 1.119-.225 2.797-2.237 3.02l-4.586.56v4.586h34.004c12.192 0 22.147-4.923 22.147-17.115.001-12.079-10.066-17.002-22.147-17.002"/><path fill="#C00" d="m257.159 18.904 6.487-10.515 6.823 10.515h-13.31zm38.143 11.41c-2.125-.225-2.796-1.679-3.468-2.685l-15.66-24.05c-1.117-1.677-1.9-2.237-3.579-2.237h-25.727v4.586l6.152.672c.896.111 2.015 1.23 1.119 2.908l-11.521 18.904c-.447.783-1.006 1.677-2.35 1.79l-4.586.559v4.586h21.7V30.76l-3.69-.336c-1.566-.224-2.461-1.342-1.678-2.573l1.789-2.796h20.807l1.565 2.349c1.343 2.125-.336 2.908-1.79 3.132l-3.803.447v4.585H300v-4.81l-4.698-.444zM158.166 5.816l4.586.559c2.014.224 2.237 1.901 2.237 3.02V26.51l-18.01-23.825c-.782-1.119-1.453-1.455-3.467-1.455h-23.266v4.587l4.586.559c2.014.224 2.237 1.901 2.237 3.02v17.673c0 1.119-.223 2.797-2.237 3.02l-4.586.56v4.585h21.7V30.76l-4.586-.56c-2.013-.223-2.237-1.901-2.237-3.02V10.067l18.009 23.826c.783 1.119 1.566 1.455 3.468 1.455h16.443V9.396c0-1.119.223-2.796 2.237-3.02l4.586-.56V1.23h-21.7v4.586zM91.05 29.977c-8.613 0-12.08-3.579-12.08-11.744 0-8.166 3.58-11.745 12.08-11.745 8.613 0 12.081 3.58 12.081 11.745.112 8.053-3.468 11.745-12.081 11.744M91.051 0C69.015 0 63.31 9.732 63.31 18.233c0 8.5 5.705 18.232 27.74 18.232 22.036 0 27.741-9.731 27.741-18.232C118.904 9.732 113.199 0 91.051 0"/></svg>